<svg id="Capa_1" enable-background="new 0 0 512 512" height="512" viewBox="0 0 512 512" width="512" xmlns="http://www.w3.org/2000/svg"><g><g><g><g><g><circle cx="256" cy="256" fill="#00ddc1" r="256"/></g></g></g></g><path d="m219.021 315.589-76.608-76.608-67 67 93.858 93.858-11.724 19.854 92.228 92.228c2.07.049 4.144.079 6.226.079 141.385 0 256-114.615 256-256 0-4.197-.108-8.369-.308-12.516l-157.24-157.24z" fill="#00baa0"/><g><path d="m256.117 419.697h-98.569v-333.453h98.569l16.925 166.727z" fill="#005fe0"/><path d="m256 86.244h98.452v333.452h-98.452z" fill="#0051be"/><path d="m177.65 107.336h156.7v253.216h-156.7z" fill="#eef4ff"/><path d="m256 107.336h78.35v253.216h-78.35z" fill="#d6e9f8"/><circle cx="256" cy="391.232" fill="#2681ff" r="17.158"/><path d="m273.158 391.232c0-9.476-7.682-17.158-17.158-17.158v34.317c9.476-.001 17.158-7.683 17.158-17.159z" fill="#005fe0"/><circle cx="256" cy="238.981" fill="#00ddc1" r="38.481"/><path d="m294.481 238.981c0-21.252-17.229-38.481-38.481-38.481v76.962c21.252 0 38.481-17.229 38.481-38.481z" fill="#00baa0"/></g><path d="m277.9 253.456-9.716-9.716-6.908 6.908-16.55-16.55 6.908-6.908-9.716-9.716-3.214-3.214-2.542 2.542c-5.471 5.471-6.006 14.195-1.245 20.294l.172.22 22.969 22.969.22.172c6.099 4.761 14.823 4.225 20.294-1.246l2.542-2.542z" fill="#eef4ff"/><g><path d="m142.413 171.981h-67v134h67l46.17-67z" fill="#ff6379"/><path d="m209.413 305.981h-67v-134h67v53.485l38.03 13.515-38.03 13.515z" fill="#ff1f3e"/><g><g><path d="m182.967 227.995h-29.568v-29.568h-21.973v29.568h-29.567v21.972h29.567v29.568h21.973v-29.568h29.568z" fill="#eef4ff"/><path d="m153.399 198.427h-10.986v81.108h10.986v-29.568h29.568v-21.972h-29.568z" fill="#d6e9f8"/></g></g></g><path d="m277.9 253.456-9.716-9.716-6.908 6.908-5.276-5.276v12.856l2.058 2.058.22.172c6.099 4.76 14.823 4.225 20.294-1.245l2.542-2.542z" fill="#d6e9f8"/></g></svg>