<svg id="Capa_1" enable-background="new 0 0 512 512" height="512" viewBox="0 0 512 512" width="512" xmlns="http://www.w3.org/2000/svg" xmlns:xlink="http://www.w3.org/1999/xlink"><linearGradient id="SVGID_1_" gradientUnits="userSpaceOnUse" x1="256" x2="256" y1="452" y2="0"><stop offset="0" stop-color="#fd5900"/><stop offset="1" stop-color="#ffde00"/></linearGradient><linearGradient id="SVGID_2_" gradientUnits="userSpaceOnUse" x1="256" x2="256" y1="346.241" y2="75"><stop offset="0" stop-color="#ffe59a"/><stop offset="1" stop-color="#ffffd5"/></linearGradient><g><g><g><path d="m406 0h-270c-24.814 0-45 20.186-45 45v392l45 15 285-45v-392c0-8.291-6.709-15-15-15z" fill="url(#SVGID_1_)"/></g></g><g><g><path d="m406 482c-8.262 0-15-6.724-15-15v-30c0-8.276 6.738-15 15-15 8.291 0 15-6.709 15-15s-6.709-15-15-15h-270c-24.814 0-45 20.186-45 45v30c0 24.814 20.186 45 45 45h270c8.291 0 15-6.709 15-15s-6.709-15-15-15zm-210-196h120c24.902 0 45-20.099 45-45 0-9.901-2.999-19.2-9.001-27.001l-13.499-17.999h-165l-13.499 17.999c-6.002 7.801-9.001 17.1-9.001 27.001 0 24.901 20.098 45 45 45zm105-141.099v-54.901c0-8.401-6.599-15-15-15h-60c-8.401 0-15 6.599-15 15v54.901l-15 20.099h120zm-105 172.099c-8.291 0-15 6.709-15 15s6.709 15 15 15h120c8.291 0 15-6.709 15-15s-6.709-15-15-15z" fill="url(#SVGID_2_)"/></g></g></g></svg>