<svg id="Capa_1" enable-background="new 0 0 512 512" height="512" viewBox="0 0 512 512" width="512" xmlns="http://www.w3.org/2000/svg" xmlns:xlink="http://www.w3.org/1999/xlink"><linearGradient id="SVGID_1_" gradientUnits="userSpaceOnUse" x1="256" x2="256" y1="512" y2="0"><stop offset="0" stop-color="#fd5900"/><stop offset="1" stop-color="#ffde00"/></linearGradient><linearGradient id="lg1"><stop offset="0" stop-color="#ffe59a"/><stop offset="1" stop-color="#ffffd5"/></linearGradient><linearGradient id="SVGID_2_" gradientUnits="userSpaceOnUse" x1="346" x2="346" xlink:href="#lg1" y1="181" y2="121"/><linearGradient id="SVGID_3_" gradientUnits="userSpaceOnUse" x1="166" x2="166" xlink:href="#lg1" y1="181" y2="121"/><linearGradient id="SVGID_4_" gradientUnits="userSpaceOnUse" x1="256" x2="256" xlink:href="#lg1" y1="422" y2="241"/><g><path d="m256 512c-140.958 0-256-115.049-256-256 0-140.959 115.049-256 256-256 140.959 0 256 115.049 256 256 0 140.958-115.049 256-256 256z" fill="url(#SVGID_1_)"/><path d="m376 181c-8.284 0-15-6.716-15-15 0-8.271-6.729-15-15-15s-15 6.729-15 15c0 8.284-6.716 15-15 15s-15-6.716-15-15c0-24.813 20.187-45 45-45s45 20.187 45 45c0 8.284-6.716 15-15 15z" fill="url(#SVGID_2_)"/><path d="m196 181c-8.284 0-15-6.716-15-15 0-8.271-6.729-15-15-15s-15 6.729-15 15c0 8.284-6.716 15-15 15s-15-6.716-15-15c0-24.813 20.187-45 45-45s45 20.187 45 45c0 8.284-6.716 15-15 15z" fill="url(#SVGID_3_)"/><path d="m256 422c-91.005 0-165-74.861-165-166 0-8.284 6.716-15 15-15h300c8.284 0 15 6.716 15 15 0 90.993-73.861 166-165 166z" fill="url(#SVGID_4_)"/></g></svg>