<svg id="Capa_1" enable-background="new 0 0 512 512" height="512" viewBox="0 0 512 512" width="512" xmlns="http://www.w3.org/2000/svg"><g><path id="XMLID_1481_" d="m55.985 29.578v482.422h400v-482.422c-20.366 0-379.643 0-400 0z" fill="#e4f3ff"/><path id="XMLID_116_" d="m256.015 29.578v482.422h200v-482.422c-10.183 0-189.821 0-200 0z" fill="#c3dafd"/><path id="XMLID_1477_" d="m149.985 0h210v89.578h-210z" fill="#9fe04d"/><path id="XMLID_179_" d="m255.985 0h104v89.578h-104z" fill="#72c976"/><path id="XMLID_1474_" d="m130.985 139.578h60v60h-60z" fill="#dc4c69"/><g id="XMLID_1453_"><g><g id="XMLID_242_"><path d="m255.985 154.578h140v30h-140z" fill="#5a9ffb"/></g></g></g><path id="XMLID_1470_" d="m130.985 263.578h60v60h-60z" fill="#ecc443"/><g id="XMLID_1451_"><g><path id="XMLID_250_" d="m255.985 278.578h140v30h-140z" fill="#5a9ffb"/></g></g><g id="XMLID_1450_"><path id="XMLID_1467_" d="m255.985 400.578h140v30h-140z" fill="#5a9ffb"/></g><g id="XMLID_1449_"><g><path id="XMLID_410_" d="m148.985 457.791-40.606-40.606 21.213-21.213 19.393 19.393 44.394-44.393 21.213 21.213z" fill="#9fe04d"/></g></g></g></svg>