<svg id="Capa_1" enable-background="new 0 0 512 512" height="512" viewBox="0 0 512 512" width="512" xmlns="http://www.w3.org/2000/svg"><g><path d="m434.347 24.756h-43.386l-4.336 3.394v80.187l2.053 6.488 45.415 40.595 3.568-2.479v-124.791z" fill="#ffe07d"/><path d="m412.144 24.756h-21.183l-4.336 3.394v80.187l2.053 6.488 23.466 20.975z" fill="#ffd064"/><g><path d="m430.372 184.005-174.372-151.553-176.096 152.907-5.565 14.757v304.272h363.322v-304.272z" fill="#90d8f9"/></g><path d="m115.61 241.716c0-19.907 8.815-38.174 23.045-50.53l150.061-130.3-32.716-28.434-176.096 152.907-5.565 14.758v304.272h41.271z" fill="#75cef9"/><path d="m447.29 0h-70.292c-3.383 0-6.125 2.742-6.125 6.125v15.899c0 3.383 2.742 6.125 6.125 6.125h70.292c3.383 0 6.125-2.742 6.125-6.125v-15.898c0-3.384-2.743-6.126-6.125-6.126z" fill="#fff0af"/><path d="m407.407 22.025v-15.899c0-3.383 2.742-6.125 6.125-6.125h-36.535c-3.383 0-6.125 2.742-6.125 6.125v15.899c0 3.383 2.742 6.125 6.125 6.125h36.535c-3.382 0-6.125-2.742-6.125-6.125z" fill="#ffe07d"/><path d="m479.989 189.935-212.301-185.547c-6.694-5.85-16.682-5.85-23.376 0l-212.301 185.547c-7.386 6.455-8.14 17.675-1.685 25.06 6.456 7.386 17.676 8.139 25.061 1.685l197.804-172.877c1.609-1.406 4.01-1.406 5.619 0l197.803 172.877c7.386 6.454 18.604 5.701 25.061-1.685 6.454-7.386 5.7-18.606-1.685-25.06z" fill="#dd636e"/><g><path d="m47.234 200.083 212.301-185.547c4.277-3.738 9.897-5.075 15.146-4.036l-6.994-6.113c-6.694-5.85-16.682-5.85-23.376 0l-212.3 185.547c-7.386 6.455-8.14 17.675-1.685 25.06 3.314 3.792 7.885 5.822 12.547 6.04-3.308-6.997-1.755-15.605 4.361-20.951z" fill="#da4a54"/></g><path d="m303.24 184.978h-94.48c-6.243 0-10.673 6.085-8.755 12.027l16.415 50.854 2.833 2.994h72.563l3.763-2.994 16.415-50.854c1.919-5.942-2.511-12.027-8.754-12.027z" fill="#b06c6c"/><path d="m239.271 197.004c-1.918-5.941 2.512-12.027 8.755-12.027h-39.266c-6.243 0-10.673 6.085-8.755 12.027l16.415 50.854 2.833 2.994h39.266l-2.834-2.994z" fill="#9d5e5e"/><g><path d="m303.029 278.811-4.109-3.221h-83.727l-6.224 3.221s-40.508 48.834-59.721 134.882c-10.397 46.564 25.348 90.696 73.058 90.696h67.384c6.892 0 13.533-.926 19.823-2.642l41.944-128.502c-20.478-60.734-48.428-94.434-48.428-94.434z" fill="#b06c6c"/></g><path d="m188.516 413.693c19.213-86.048 59.721-134.882 59.721-134.882l6.224-3.221h-39.266l-6.224 3.221s-40.508 48.834-59.721 134.882c-10.397 46.564 25.348 90.696 73.058 90.696h39.266c-47.71 0-83.455-44.132-73.058-90.696z" fill="#9d5e5e"/><path d="m291.182 275.59h-24.23l-3.073 3.221v31.553c0 4.063 3.294 7.357 7.357 7.357h16.238c4.063 0 7.357-3.294 7.357-7.357v-31.553z" fill="#ffaa5b"/><path d="m303.029 247.858h-94.059c-4.063 0-7.357 3.294-7.357 7.357v16.238c0 4.063 3.294 7.357 7.357 7.357h94.059c4.063 0 7.357-3.294 7.357-7.357v-16.238c.001-4.063-3.293-7.357-7.357-7.357z" fill="#ffba7e"/><path d="m242.685 271.454v-16.238c0-4.063 3.294-7.357 7.357-7.357h-41.072c-4.063 0-7.357 3.294-7.357 7.357v16.238c0 4.063 3.294 7.357 7.357 7.357h41.071c-4.063 0-7.356-3.294-7.356-7.357z" fill="#ffaa5b"/><g><circle cx="328.223" cy="436.767" fill="#ffe07d" r="67.621"/></g><path d="m328.304 369.148c-.027 0-.054-.002-.082-.002-37.346 0-67.621 30.275-67.621 67.621s30.275 67.621 67.621 67.621c.027 0 .054-.002.082-.002-24.788-12.408-41.819-38.012-41.819-67.619.001-29.607 17.032-55.211 41.819-67.619z" fill="#ffc250"/><path d="m335.834 429.176v-13.476h13.547c4.204 0 7.612-3.408 7.612-7.612s-3.408-7.612-7.612-7.612h-13.547v-5.349c0-4.204-3.408-7.612-7.612-7.612s-7.612 3.408-7.612 7.612v5.37c-11.737.42-21.158 10.093-21.158 21.931s9.421 21.511 21.158 21.931v13.476h-13.547c-4.204 0-7.612 3.408-7.612 7.612s3.408 7.612 7.612 7.612h13.547v5.349c0 4.204 3.408 7.612 7.612 7.612s7.612-3.408 7.612-7.612v-5.369c11.737-.419 21.158-10.093 21.158-21.931s-9.42-21.513-21.158-21.932zm-15.223-13.425v13.354c-7.849-.927-7.873-12.424 0-13.354zm15.223 42.032v-13.353c7.849.927 7.874 12.424 0 13.353z" fill="#ffc250"/><g><path d="m459.481 512h-406.962c-4.204 0-7.612-3.408-7.612-7.612s3.408-7.612 7.612-7.612h406.962c4.204 0 7.612 3.408 7.612 7.612s-3.408 7.612-7.612 7.612z" fill="#b3e59f"/></g></g></svg>