<svg id="Capa_1" enable-background="new 0 0 512 512" height="512" viewBox="0 0 512 512" width="512" xmlns="http://www.w3.org/2000/svg" xmlns:xlink="http://www.w3.org/1999/xlink"><linearGradient id="SVGID_1_" gradientUnits="userSpaceOnUse" x1="203.5" x2="203.5" y1="391" y2="121"><stop offset="0" stop-color="#ffe59a"/><stop offset="1" stop-color="#ffffd5"/></linearGradient><linearGradient id="SVGID_2_" gradientUnits="userSpaceOnUse" x1="256" x2="256" y1="512" y2="0"><stop offset="0" stop-color="#fd5900"/><stop offset="1" stop-color="#ffde00"/></linearGradient><g><path d="m256 121 30 135-30 135c-74.399 0-135-60.601-135-135 0-74.401 60.601-135 135-135z" fill="url(#SVGID_1_)"/><g><g><path d="m256 90c8.291 0 15-6.709 15-15v-60c0-8.291-6.709-15-15-15s-15 6.709-15 15v60c0 8.291 6.709 15 15 15zm0 332c-8.291 0-15 6.709-15 15v60c0 8.291 6.709 15 15 15s15-6.709 15-15v-60c0-8.291-6.709-15-15-15zm-166-166c0-8.291-6.709-15-15-15h-60c-8.291 0-15 6.709-15 15s6.709 15 15 15h60c8.291 0 15-6.709 15-15zm407-15h-60c-8.291 0-15 6.709-15 15s6.709 15 15 15h60c8.291 0 15-6.709 15-15s-6.709-15-15-15zm-378.886 131.675-42.422 42.422c-5.859 5.859-5.859 15.352 0 21.211 5.86 5.859 15.352 5.859 21.211 0l42.422-42.422c5.859-5.859 5.859-15.352 0-21.211s-15.351-5.86-21.211 0zm275.772-233.35 42.422-42.422c5.859-5.859 5.859-15.352 0-21.211s-15.352-5.859-21.211 0l-42.422 42.422c-5.859 5.859-5.859 15.352 0 21.211 5.859 5.86 15.352 5.86 21.211 0zm0 233.35c-5.859-5.859-15.352-5.859-21.211 0s-5.859 15.352 0 21.211l42.422 42.422c5.86 5.859 15.352 5.859 21.211 0s5.859-15.352 0-21.211zm-296.983-296.983c-5.859-5.859-15.352-5.859-21.211 0s-5.859 15.352 0 21.211l42.422 42.422c5.86 5.859 15.352 5.859 21.211 0s5.859-15.352 0-21.211zm159.097 45.308v270c74.399 0 135-60.601 135-135 0-74.401-60.601-135-135-135z" fill="url(#SVGID_2_)"/></g></g></g></svg>